<svg width="27" height="25" viewBox="0 0 27 25" fill="none" xmlns="http://www.w3.org/2000/svg">
<mask id="mask0" mask-type="alpha" maskUnits="userSpaceOnUse" x="0" y="0" width="27" height="25">
<path d="M13.503 6.09032C9.67211 6.09032 6.5821 8.95208 6.5821 12.5C6.5821 16.0479 9.67211 18.9097 13.503 18.9097C17.3339 18.9097 20.4239 16.0479 20.4239 12.5C20.4239 8.95208 17.3339 6.09032 13.503 6.09032ZM13.503 16.6671C11.0274 16.6671 9.00351 14.7983 9.00351 12.5C9.00351 10.2017 11.0214 8.33287 13.503 8.33287C15.9847 8.33287 18.0025 10.2017 18.0025 12.5C18.0025 14.7983 15.9786 16.6671 13.503 16.6671ZM22.3213 5.82813C22.3213 6.65932 21.5985 7.32316 20.707 7.32316C19.8095 7.32316 19.0928 6.65374 19.0928 5.82813C19.0928 5.00251 19.8156 4.33309 20.707 4.33309C21.5985 4.33309 22.3213 5.00251 22.3213 5.82813ZM26.9051 7.34548C26.8027 5.3428 26.3088 3.56884 24.7247 2.10727C23.1465 0.64571 21.2311 0.188274 19.0687 0.0878612C16.84 -0.0292871 10.16 -0.0292871 7.93134 0.0878612C5.77496 0.182696 3.85951 0.640132 2.27535 2.1017C0.691188 3.56326 0.203291 5.33722 0.0948689 7.3399C-0.031623 9.40394 -0.031623 15.5905 0.0948689 17.6545C0.197267 19.6572 0.691188 21.4312 2.27535 22.8927C3.85951 24.3543 5.76893 24.8117 7.93134 24.9121C10.16 25.0293 16.84 25.0293 19.0687 24.9121C21.2311 24.8173 23.1465 24.3599 24.7247 22.8927C26.3028 21.4312 26.7967 19.6572 26.9051 17.6545C27.0316 15.5905 27.0316 9.40952 26.9051 7.34548ZM24.0259 19.8692C23.5561 20.9626 22.6466 21.8049 21.46 22.2456C19.683 22.8983 15.4666 22.7477 13.503 22.7477C11.5394 22.7477 7.31695 22.8927 5.54607 22.2456C4.36548 21.8105 3.45594 20.9681 2.98009 19.8692C2.27535 18.2235 2.43798 14.3186 2.43798 12.5C2.43798 10.6814 2.28137 6.77089 2.98009 5.13082C3.44992 4.03743 4.35945 3.19508 5.54607 2.75438C7.32298 2.1017 11.5394 2.25232 13.503 2.25232C15.4666 2.25232 19.6891 2.10727 21.46 2.75438C22.6405 3.1895 23.5501 4.03185 24.0259 5.13082C24.7307 6.77647 24.568 10.6814 24.568 12.5C24.568 14.3186 24.7307 18.2291 24.0259 19.8692Z" fill="white"/>
</mask>
<g mask="url(#mask0)">
<rect x="-102" y="-14" width="151" height="60" fill="#FFFFFF"/>
</g>
</svg>
