<svg width="24" height="26" viewBox="0 0 24 26" fill="none" xmlns="http://www.w3.org/2000/svg">
<mask id="mask0" mask-type="alpha" maskUnits="userSpaceOnUse" x="0" y="0" width="24" height="26">
<path d="M23.3156 18.3725L18.0655 15.935C17.8412 15.8314 17.5919 15.8096 17.3552 15.8728C17.1185 15.936 16.9071 16.0808 16.7529 16.2854L14.4279 19.3628C10.779 17.499 7.84242 14.3177 6.12198 10.3647L8.96266 7.84589C9.15188 7.67916 9.28581 7.45018 9.34418 7.19362C9.40254 6.93705 9.38215 6.66688 9.2861 6.42399L7.03606 0.736389C6.93064 0.47456 6.7442 0.260786 6.50887 0.131928C6.27355 0.00306986 6.00409 -0.0327954 5.74697 0.0305166L0.87189 1.24929C0.623996 1.3113 0.402825 1.46251 0.244474 1.67824C0.0861227 1.89396 -5.71046e-05 2.16146 2.8389e-08 2.43708C2.8389e-08 15.4627 9.74548 26 21.7504 26C22.0049 26.0002 22.2519 25.9069 22.4511 25.7353C22.6504 25.5638 22.79 25.3241 22.8473 25.0555L23.9723 19.7741C24.0304 19.4942 23.9965 19.2011 23.8767 18.9453C23.7568 18.6895 23.5584 18.487 23.3156 18.3725Z" fill="white"/>
</mask>
<g mask="url(#mask0)">
<rect x="-11" y="-14" width="151" height="60" fill="#FFFFFF"/>
</g>
</svg>
