<svg id="svg" version="1.1" xmlns="http://www.w3.org/2000/svg" xmlns:xlink="http://www.w3.org/1999/xlink" width="25" height="25" viewBox="0, 0, 400,400"><g id="svgg"><path id="path0" d="M71.514 50.282 C 60.385 51.887,51.577 60.209,50.259 70.365 C 50.117 71.462,50.075 109.429,50.115 199.812 L 50.172 327.707 50.574 329.301 C 53.197 339.698,61.156 347.413,71.414 349.504 C 73.963 350.023,327.552 350.020,330.103 349.501 C 340.471 347.390,348.484 338.341,349.735 327.332 C 350.074 324.345,349.995 71.793,349.654 69.573 C 348.159 59.843,341.623 52.976,331.505 50.504 C 329.990 50.134,74.057 49.915,71.514 50.282 M128.833 100.486 C 150.121 105.441,152.595 136.456,132.334 144.376 C 126.015 146.846,117.799 146.572,112.049 143.699 C 96.149 135.756,95.925 110.797,111.681 102.639 C 116.515 100.136,123.540 99.254,128.833 100.486 M257.452 163.624 C 282.719 166.752,297.777 185.021,299.849 215.064 C 299.979 216.948,300.047 232.085,300.047 258.993 L 300.047 300.047 278.583 300.047 L 257.118 300.047 257.050 261.088 C 256.988 225.845,256.951 221.906,256.666 219.800 C 254.753 205.712,248.697 198.687,237.551 197.628 C 227.573 196.681,218.982 201.706,214.179 211.297 C 211.672 216.306,211.841 212.908,211.769 259.775 L 211.707 300.047 190.242 300.047 L 168.776 300.047 168.776 233.193 L 168.776 166.338 190.248 166.338 L 211.721 166.338 211.721 175.639 L 211.721 184.939 213.371 182.673 C 222.665 169.916,232.056 164.580,247.539 163.260 C 249.163 163.122,255.179 163.342,257.452 163.624 M143.085 233.193 L 143.085 300.047 121.519 300.047 L 99.953 300.047 99.953 233.193 L 99.953 166.338 121.519 166.338 L 143.085 166.338 143.085 233.193 " stroke="none" fill="#20EB00" fill-rule="evenodd"></path><path id="path1" d="M73.279 50.015 C 73.513 50.060,73.850 50.059,74.029 50.012 C 74.209 49.965,74.018 49.928,73.605 49.930 C 73.193 49.932,73.046 49.971,73.279 50.015 M327.569 50.015 C 327.802 50.060,328.140 50.059,328.319 50.012 C 328.498 49.965,328.308 49.928,327.895 49.930 C 327.482 49.932,327.336 49.971,327.569 50.015 M49.976 198.781 C 49.976 268.659,49.997 297.246,50.023 262.307 C 50.050 227.368,50.050 170.195,50.023 135.256 C 49.997 100.316,49.976 128.903,49.976 198.781 M350.023 198.687 C 350.023 268.514,350.044 297.051,350.070 262.104 C 350.096 227.156,350.096 170.025,350.070 135.146 C 350.044 100.267,350.023 128.861,350.023 198.687 M122.035 100.092 C 122.679 100.129,123.734 100.129,124.379 100.092 C 125.023 100.055,124.496 100.025,123.207 100.025 C 121.917 100.025,121.390 100.055,122.035 100.092 M100.016 123.019 C 100.016 123.793,100.049 124.109,100.090 123.722 C 100.130 123.336,100.130 122.703,100.090 122.316 C 100.049 121.929,100.016 122.246,100.016 123.019 M146.136 123.207 C 146.136 123.671,146.173 123.861,146.218 123.629 C 146.262 123.397,146.262 123.017,146.218 122.785 C 146.173 122.553,146.136 122.743,146.136 123.207 M139.522 139.616 C 139.066 140.080,138.736 140.459,138.787 140.459 C 138.839 140.459,139.254 140.080,139.709 139.616 C 140.165 139.151,140.495 138.772,140.444 138.772 C 140.392 138.772,139.977 139.151,139.522 139.616 M121.847 146.036 C 122.389 146.074,123.275 146.074,123.816 146.036 C 124.358 145.998,123.915 145.967,122.832 145.967 C 121.749 145.967,121.306 145.998,121.847 146.036 M246.179 163.470 C 246.411 163.515,246.791 163.515,247.023 163.470 C 247.255 163.426,247.065 163.389,246.601 163.389 C 246.137 163.389,245.947 163.426,246.179 163.470 M254.055 163.470 C 254.287 163.515,254.667 163.515,254.899 163.470 C 255.131 163.426,254.941 163.389,254.477 163.389 C 254.013 163.389,253.823 163.426,254.055 163.470 M100.000 233.146 L 100.047 299.953 121.519 299.953 L 142.991 299.953 143.038 233.146 L 143.085 166.338 121.519 166.338 L 99.953 166.338 100.000 233.146 M179.404 166.479 C 185.301 166.507,195.006 166.507,200.970 166.479 C 206.934 166.452,202.110 166.429,190.248 166.429 C 178.387 166.429,173.507 166.452,179.404 166.479 M142.897 233.193 L 142.897 299.859 121.519 299.859 L 100.141 299.859 100.141 233.193 L 100.141 166.526 121.519 166.526 L 142.897 166.526 142.897 233.193 M282.419 174.273 C 282.419 174.306,282.693 174.580,283.029 174.883 L 283.638 175.434 283.087 174.824 C 282.574 174.256,282.419 174.129,282.419 174.273 M219.496 175.387 L 218.565 176.371 219.550 175.441 C 220.091 174.929,220.534 174.486,220.534 174.456 C 220.534 174.316,220.361 174.472,219.496 175.387 M249.695 202.907 C 250.203 203.422,250.661 203.844,250.713 203.844 C 250.764 203.844,250.391 203.422,249.883 202.907 C 249.375 202.391,248.917 201.969,248.865 201.969 C 248.814 201.969,249.187 202.391,249.695 202.907 M219.121 204.079 L 218.190 205.063 219.175 204.133 C 220.090 203.268,220.245 203.094,220.105 203.094 C 220.076 203.094,219.633 203.537,219.121 204.079 M299.528 212.658 C 299.528 213.019,299.566 213.167,299.614 212.986 C 299.661 212.806,299.661 212.511,299.614 212.330 C 299.566 212.150,299.528 212.297,299.528 212.658 M299.723 215.096 C 299.723 215.560,299.759 215.750,299.804 215.518 C 299.849 215.286,299.849 214.906,299.804 214.674 C 299.759 214.442,299.723 214.632,299.723 215.096 M299.927 219.222 C 299.927 220.202,299.959 220.602,299.997 220.113 C 300.036 219.623,300.036 218.821,299.997 218.331 C 299.959 217.841,299.927 218.242,299.927 219.222 M211.772 220.347 C 211.772 220.811,211.808 221.001,211.853 220.769 C 211.898 220.537,211.898 220.157,211.853 219.925 C 211.808 219.693,211.772 219.883,211.772 220.347 M256.969 223.254 C 256.970 223.769,257.007 223.958,257.050 223.673 C 257.093 223.388,257.092 222.966,257.047 222.735 C 257.003 222.505,256.967 222.738,256.969 223.254 M179.404 300.000 C 185.301 300.027,195.006 300.027,200.970 300.000 C 206.934 299.972,202.110 299.950,190.248 299.950 C 178.387 299.950,173.507 299.972,179.404 300.000 M267.731 300.000 C 273.627 300.027,283.332 300.027,289.296 300.000 C 295.261 299.972,290.436 299.950,278.575 299.950 C 266.714 299.950,261.834 299.972,267.731 300.000 M57.665 342.241 C 58.278 342.860,58.821 343.366,58.872 343.366 C 58.924 343.366,58.465 342.860,57.853 342.241 C 57.240 341.622,56.697 341.116,56.646 341.116 C 56.594 341.116,57.053 341.622,57.665 342.241 " stroke="none" fill="#d3d3d3" fill-rule="evenodd"></path><path id="path2" d="M137.521 50.023 C 172.366 50.050,229.328 50.050,264.104 50.023 C 298.879 49.997,270.370 49.976,200.750 49.976 C 131.130 49.976,102.677 49.997,137.521 50.023 M138.959 105.825 C 138.959 105.857,139.233 106.132,139.569 106.435 L 140.178 106.985 139.627 106.376 C 139.114 105.808,138.959 105.680,138.959 105.825 M249.367 163.289 C 250.012 163.326,251.067 163.326,251.711 163.289 C 252.356 163.253,251.828 163.223,250.539 163.223 C 249.250 163.223,248.722 163.253,249.367 163.289 M284.951 176.840 C 285.354 177.253,285.725 177.590,285.777 177.590 C 285.829 177.590,285.541 177.253,285.138 176.840 C 284.735 176.428,284.364 176.090,284.312 176.090 C 284.260 176.090,284.548 176.428,284.951 176.840 M211.768 221.753 C 211.770 222.166,211.808 222.313,211.853 222.079 C 211.898 221.846,211.896 221.509,211.849 221.329 C 211.802 221.150,211.766 221.341,211.768 221.753 M256.962 224.754 C 256.965 225.166,257.003 225.313,257.048 225.080 C 257.093 224.847,257.091 224.509,257.044 224.330 C 256.997 224.150,256.960 224.341,256.962 224.754 " stroke="none" fill="#e4e4e4" fill-rule="evenodd"></path><path id="path3" d="M342.804 56.185 C 342.804 56.288,343.099 56.659,343.460 57.009 C 343.821 57.359,344.116 57.561,344.116 57.458 C 344.116 57.354,343.821 56.984,343.460 56.634 C 343.099 56.284,342.804 56.082,342.804 56.185 M56.446 57.478 C 56.204 57.736,56.092 57.947,56.197 57.947 C 56.437 57.947,57.102 57.227,56.977 57.102 C 56.927 57.052,56.687 57.221,56.446 57.478 M106.423 139.709 C 106.610 139.916,106.847 140.084,106.950 140.084 C 107.053 140.084,106.985 139.916,106.798 139.709 C 106.611 139.503,106.374 139.334,106.271 139.334 C 106.168 139.334,106.236 139.503,106.423 139.709 M218.097 176.746 C 217.966 176.903,217.946 177.028,218.051 177.028 C 218.154 177.028,218.343 176.901,218.472 176.746 C 218.602 176.589,218.622 176.465,218.518 176.465 C 218.414 176.465,218.225 176.592,218.097 176.746 M342.151 342.988 C 341.750 343.398,341.463 343.776,341.515 343.828 C 341.566 343.879,341.979 343.543,342.432 343.081 C 342.886 342.619,343.172 342.241,343.068 342.241 C 342.965 342.241,342.552 342.577,342.151 342.988 " stroke="none" fill="#f4f4f4" fill-rule="evenodd"></path><path id="path4" d="" stroke="none" fill="#100f4fc" fill-rule="evenodd"></path></g></svg>